<svg width="1112" height="475" viewBox="0 0 1112 475" fill="none" xmlns="http://www.w3.org/2000/svg">
<g clip-path="url(#clip0_1320_435)">
<path d="M542.8 366.5C554 366.5 560.2 358.6 560.2 343.3V194.9H592.9V346.4C592.9 378.2 575.2 396.1 545.2 396.1C542.6 396.1 539.3 396.1 535.5 395.5L538.1 365.8C539.9 366.2 541.3 366.5 542.8 366.5ZM597.5 149C597.5 160.8 587.8 170.2 576.3 170.2C564.8 170.2 555.4 160.8 555.4 149C555.4 137.8 564.8 128.1 576.3 128.1C587.8 128.1 597.5 137.9 597.5 149Z" fill="#333C4E"/>
<path d="M772.9 194.9V338.8H739.9V313.5C729.6 331.4 711.9 341.7 689 341.7C650.7 341.7 620.1 308.2 620.1 266.7C620.1 225.2 650.7 192 689 192C712 192 729.6 202.3 739.9 220.2V194.9H772.9ZM739.9 266.7C739.9 242 721.1 223.2 696.1 223.2C671.7 223.2 652.3 242.6 652.3 266.7C652.3 291.1 671.7 310.5 696.1 310.5C721.1 310.6 739.9 291.7 739.9 266.7Z" fill="#333C4E"/>
<path d="M942.4 274.7H832.9C836.4 297.9 852.3 312.1 875.6 312.1C891.8 312.1 906.5 305 913.3 293.9L939.5 310.7C928.9 330.1 904.8 341.9 875.1 341.9C833.6 341.9 800.4 309.2 800.4 266.3C800.4 224.5 833.1 192.2 874.5 192.2C913.3 192.2 943.6 222.2 943.6 260.8C943.5 264.4 943.2 270.3 942.4 274.7ZM909.1 249.7C907.3 231.8 892.3 219.1 872.6 219.1C852.9 219.1 839.1 230.9 834.1 249.7H909.1Z" fill="#333C4E"/>
<path d="M1106.8 256.7V338.8H1073.8V260.8C1073.8 238.1 1060 223.4 1039.1 223.4C1017.6 223.4 1003.5 238.1 1003.5 260.8V338.8H970.8V194.9H1003.5V217.6C1012.6 201.4 1027.9 192 1047 192C1083.9 192 1106.8 216.7 1106.8 256.7Z" fill="#333C4E"/>
<g clip-path="url(#clip1_1320_435)">
<path fill-rule="evenodd" clip-rule="evenodd" d="M425.268 49.917C380.468 5.31696 316.068 0.316956 237.368 0.316956C158.568 0.316956 94.1684 5.31696 49.3684 50.117C4.56836 94.917 0.0683594 159.217 0.0683594 237.917C0.0683594 316.617 4.56836 381.017 49.3684 425.717C94.1684 470.417 158.568 475.017 237.368 475.017C316.168 475.017 380.568 470.517 425.368 425.717C470.168 380.917 474.668 316.617 474.668 237.817C474.768 159.117 470.168 94.617 425.268 49.917Z" fill="#AF23A5"/>
<path d="M115.9 344.8C122 347 125.3 350.5 128.8 353.5C158.4 377.9 192.2 392.4 230.7 393.2C303.5 394.8 366.9 346.9 380.6 275.4C392.2 215.2 372.5 165.3 322.6 129.6C262.5 86.6 179.1 99.7 134.6 158.2C105.3 196.7 98.8997 239.7 114.3 285.6C117.9 296.5 118.1 306.3 110.7 315.5C104.4 323.3 95.9997 326.3 86.1997 325C75.1997 323.5 67.6997 317.1 64.0997 306.7C58.7997 291.3 55.1997 275.4 54.2997 259.2C50.9997 199.9 69.9997 148.8 114 108.6C153.7 72.2 201.2 55.7 255.3 61.1C335.8 69.2 399.4 125.7 415.1 204C434.5 300.8 374.5 393 278.2 411C218 422.2 164.9 405.9 123.8 358C121.7 355.5 120 352.6 118.2 349.9C117.5 348.7 117.1 347.4 115.9 344.8Z" fill="white"/>
<path d="M204.64 326.64C216.44 315.86 228.3 309.81 244.08 306.52C252.56 304.78 260.32 303.97 274.2 303.51C279.82 303.29 284.48 303.11 284.51 303.11C284.54 303.08 285.07 300.78 285.69 297.99C291.09 273.68 303.24 232.37 317.99 188.37C319.76 183 321.19 178.56 321.16 178.53C321.1 178.47 306.72 192.78 289.21 210.33L257.32 242.22L257.85 244.15C259.22 249.37 255.86 255.64 250.24 258.31C248.25 259.24 247.91 259.3 244.68 259.3C241.36 259.3 241.2 259.27 238.9 258.12C230.52 253.99 228.71 243.28 235.27 236.69C238.5 233.46 242.97 232.09 247.04 233.06L248.65 233.46L280.45 201.66C297.93 184.18 312.19 169.86 312.16 169.8C312.1 169.77 306.14 171.69 298.9 174.09C253.81 188.93 215.65 200.14 193.63 204.96C190.8 205.58 188.29 206.14 188.01 206.23C187.58 206.35 187.48 207.5 187.33 215.61C186.65 249.09 180.72 267.78 165.34 284.92L162.48 288.09L182.63 308.21L202.78 328.36L204.64 326.64Z" fill="white"/>
</g>
</g>
<defs>
<clipPath id="clip0_1320_435">
<rect width="1112" height="475" fill="white"/>
</clipPath>
<clipPath id="clip1_1320_435">
<rect width="475" height="475" fill="white"/>
</clipPath>
</defs>
</svg>
